<svg width="147" height="141" viewBox="0 0 147 141" fill="none" xmlns="http://www.w3.org/2000/svg">
<path d="M139.04 100.4C139.04 98 137.12 97.04 135.04 97.04C126.88 97.04 123.52 87.76 123.52 81.04C123.52 72.24 125.44 63.44 127.68 54.96C129.76 47.6 132.96 40.08 132.96 32.24C132.96 25.2 129.76 21.04 122.4 21.04C100.32 21.04 80.8 67.28 72.48 84.24C72 85.04 71.68 85.68 71.04 86.48C71.04 85.68 70.88 85.04 70.88 84.24C70.88 77.52 72.32 70.96 73.76 64.24C75.2 57.68 76.64 50.96 76.64 44.24C76.64 38.32 75.52 30.16 68 30.16C53.6 30.16 30.72 70.64 23.68 82.48C27.36 69.04 31.84 55.44 31.84 41.36C31.84 30.8 28 18.64 15.36 18.64C9.6 18.64 -1.19209e-07 23.44 -1.19209e-07 30C-1.19209e-07 31.76 1.28 33.52 3.2 33.52C6.88 33.52 9.28 27.76 14.56 27.76C21.6 27.76 23.36 36.88 23.36 42.32C23.36 52.24 20.8 62.64 18.4 72.24C16.64 79.12 11.68 92.72 11.68 99.28C11.68 102 12.96 104.72 16 104.72C17.92 104.72 19.52 103.44 20.64 102C29.28 91.28 54.72 39.6 67.36 39.44C67.52 39.92 67.68 40.56 67.68 41.04C67.68 49.36 66.24 57.68 64.8 65.84C63.84 71.92 62.24 78 62.24 84.4C62.24 89.52 63.36 96.08 69.92 96.08C77.12 96.08 80.96 86.32 83.52 80.88C91.36 64.4 99.68 43.44 115.2 32.88C117.12 31.6 119.36 30.32 121.6 30.32C123.52 30.32 124 32.4 124 33.84C124 36.4 123.2 38.8 122.56 41.2C119.2 55.6 114.4 70 114.4 85.04C114.4 95.44 121.76 104.4 132.48 104.4C134.88 104.4 139.04 103.6 139.04 100.4Z" fill="#92E3A9"/>
<path d="M46.312 139.52C46.312 138.8 45.736 138.512 45.112 138.512C42.664 138.512 41.656 135.728 41.656 133.712C41.656 131.072 42.232 128.432 42.904 125.888C43.528 123.68 44.488 121.424 44.488 119.072C44.488 116.96 43.528 115.712 41.32 115.712C34.696 115.712 28.84 129.584 26.344 134.672C26.2 134.912 26.104 135.104 25.912 135.344C25.912 135.104 25.864 134.912 25.864 134.672C25.864 132.656 26.296 130.688 26.728 128.672C27.16 126.704 27.592 124.688 27.592 122.672C27.592 120.896 27.256 118.448 25 118.448C20.68 118.448 13.816 130.592 11.704 134.144C12.808 130.112 14.152 126.032 14.152 121.808C14.152 118.64 13 114.992 9.208 114.992C7.48 114.992 4.6 116.432 4.6 118.4C4.6 118.928 4.984 119.456 5.56 119.456C6.664 119.456 7.384 117.728 8.968 117.728C11.08 117.728 11.608 120.464 11.608 122.096C11.608 125.072 10.84 128.192 10.12 131.072C9.592 133.136 8.104 137.216 8.104 139.184C8.104 140 8.488 140.816 9.4 140.816C9.976 140.816 10.456 140.432 10.792 140C13.384 136.784 21.016 121.28 24.808 121.232C24.856 121.376 24.904 121.568 24.904 121.712C24.904 124.208 24.472 126.704 24.04 129.152C23.752 130.976 23.272 132.8 23.272 134.72C23.272 136.256 23.608 138.224 25.576 138.224C27.736 138.224 28.888 135.296 29.656 133.664C32.008 128.72 34.504 122.432 39.16 119.264C39.736 118.88 40.408 118.496 41.08 118.496C41.656 118.496 41.8 119.12 41.8 119.552C41.8 120.32 41.56 121.04 41.368 121.76C40.36 126.08 38.92 130.4 38.92 134.912C38.92 138.032 41.128 140.72 44.344 140.72C45.064 140.72 46.312 140.48 46.312 139.52ZM69.0029 132.8C69.0029 132.272 68.5229 131.792 67.9949 131.792C66.3629 131.792 65.1629 136.832 62.1389 136.832C60.7469 136.832 60.1229 135.296 59.9309 134.144C60.2669 132.944 61.4669 131.936 61.4669 130.112C61.4669 129.296 61.0349 128.384 60.1229 128.384C58.1549 128.384 57.3389 132.752 57.2909 134.24C56.4269 135.392 54.4109 137.504 52.8269 137.504C51.6749 137.504 51.3869 136.064 51.3869 135.152C51.3869 132.224 53.3549 130.208 53.3549 128.96C53.3549 128.24 52.8269 127.712 52.1069 127.712C51.5789 127.712 51.0509 128 50.7629 128.432C49.8029 130.064 48.8909 133.424 48.8909 135.296C48.8909 137.552 49.7069 139.952 52.3469 139.952C54.4589 139.952 56.4749 138.176 57.9629 136.832C58.7309 138.32 60.3629 139.424 62.0429 139.424C64.7309 139.424 67.8509 135.584 68.8589 133.328C68.9549 133.184 69.0029 132.992 69.0029 132.8ZM82.4541 132.176C82.4541 131.648 82.1181 131.216 81.5421 131.216C81.1581 131.216 80.8701 131.456 80.6781 131.792C80.0061 132.944 79.2861 134 78.3261 134.96C77.8461 132.464 75.1101 130.4 73.3821 128.768C73.7661 127.616 74.2461 126.272 74.2461 125.024C74.2461 124.208 74.0061 123.488 73.0461 123.488C71.4141 123.488 70.3101 126.416 70.3101 127.76C70.3101 128.336 70.4061 128.912 70.6461 129.44C70.2141 130.496 69.3501 131.744 69.3501 132.944C69.3501 133.52 69.6861 133.856 70.2621 133.856C71.1741 133.856 71.9421 131.984 72.3261 131.264C73.5261 132.272 76.0701 134.24 76.0701 135.92C76.0701 136.256 76.0221 136.64 75.8781 136.928C75.1101 137.504 74.0541 137.84 73.0941 137.84C71.7981 137.84 71.0301 137.072 70.4541 137.072C69.8781 137.072 69.4461 137.6 69.4461 138.176C69.4461 139.904 72.0381 140.672 73.4301 140.672C75.1581 140.672 77.1261 139.52 77.9421 137.984C79.3341 137.12 82.4541 133.904 82.4541 132.176ZM87.9486 122.864C87.9486 121.904 87.4206 120.848 86.3166 120.848C84.6366 120.848 83.8206 122.864 83.8206 124.256C83.8206 125.168 84.5406 125.696 85.4046 125.696C86.8926 125.696 87.9486 124.256 87.9486 122.864ZM92.9886 132.464C92.9886 131.888 92.5566 131.456 91.9806 131.456C91.5486 131.456 91.1646 131.792 90.9246 132.128C90.1566 133.52 88.0446 137.216 86.1246 137.216C84.9246 137.216 84.9246 135.92 84.9246 135.056C84.9246 132.992 85.8366 130.496 85.8366 129.104C85.8366 128.432 85.4046 127.856 84.6846 127.856C82.5246 127.856 82.3806 133.664 82.3806 135.2C82.3806 137.36 83.0046 139.664 85.5966 139.664C86.6526 139.664 87.7086 139.28 88.5726 138.656C90.0126 137.552 92.9886 134.336 92.9886 132.464ZM109.69 132.56C109.69 131.984 109.306 131.504 108.682 131.504C108.25 131.504 107.962 131.744 107.722 132.08L107.674 132.176C106.234 134.672 103.546 137.264 100.474 137.264C97.594 137.264 95.674 135.248 95.674 132.416C95.674 130.304 97.45 126.368 99.946 126.368C100.378 126.368 100.714 126.608 101.002 126.944C100.57 127.952 100.378 129.056 100.378 130.16C100.378 131.12 100.474 132.944 101.77 132.944C103.498 132.944 103.93 129.344 103.93 128.096C103.93 127.424 103.882 126.752 103.642 126.128C103.738 125.456 103.45 124.688 102.634 124.736C102.058 124.256 101.242 123.872 100.474 123.872C96.346 123.872 93.082 129.152 93.082 132.896C93.082 136.784 96.058 139.616 99.898 139.616C103.642 139.616 108.202 136.64 109.594 133.136C109.642 132.944 109.69 132.752 109.69 132.56ZM128.305 132.608C128.305 132.08 127.873 131.648 127.345 131.648C126.385 131.648 125.713 133.808 123.217 133.808C123.313 133.376 123.361 132.992 123.361 132.56C123.361 130.928 122.353 128.048 120.337 128.096C119.857 127.328 118.369 127.328 117.553 127.328C113.521 127.328 109.489 130.496 109.489 134.72C109.489 137.84 111.793 140.432 114.961 140.432C117.841 140.432 121.009 138.56 122.353 136.016C124.273 136.256 128.305 134.912 128.305 132.608ZM120.865 132.368C120.865 132.656 120.865 132.896 120.817 133.184C119.953 132.608 119.089 131.696 119.089 130.64C119.089 130.4 119.089 129.872 119.425 129.872C120.241 129.872 120.865 131.696 120.865 132.368ZM119.953 135.248C119.041 136.736 117.217 138.272 115.441 138.272C113.425 138.272 112.225 136.448 112.225 134.576C112.225 131.744 114.337 129.728 117.121 129.584C116.977 129.92 116.929 130.352 116.929 130.736C116.929 132.704 118.369 134.24 119.953 135.248ZM146.97 132.608C146.97 132.08 146.538 131.648 146.01 131.648C145.05 131.648 144.378 133.808 141.882 133.808C141.978 133.376 142.026 132.992 142.026 132.56C142.026 130.928 141.018 128.048 139.002 128.096C138.522 127.328 137.034 127.328 136.218 127.328C132.186 127.328 128.154 130.496 128.154 134.72C128.154 137.84 130.458 140.432 133.626 140.432C136.506 140.432 139.674 138.56 141.018 136.016C142.938 136.256 146.97 134.912 146.97 132.608ZM139.53 132.368C139.53 132.656 139.53 132.896 139.482 133.184C138.618 132.608 137.754 131.696 137.754 130.64C137.754 130.4 137.754 129.872 138.09 129.872C138.906 129.872 139.53 131.696 139.53 132.368ZM138.618 135.248C137.706 136.736 135.882 138.272 134.106 138.272C132.09 138.272 130.89 136.448 130.89 134.576C130.89 131.744 133.002 129.728 135.786 129.584C135.642 129.92 135.594 130.352 135.594 130.736C135.594 132.704 137.034 134.24 138.618 135.248Z" fill="white"/>
</svg>
