<svg width="360" height="402" viewBox="0 0 360 402" fill="none" xmlns="http://www.w3.org/2000/svg">
<g filter="url(#filter0_f_242_272)">
<ellipse cx="175.5" cy="201" rx="116.5" ry="81" fill="#92E3A9" fill-opacity="0.3"/>
</g>
<path d="M141.52 219.2C141.52 218 140.56 217.52 139.52 217.52C135.44 217.52 133.76 212.88 133.76 209.52C133.76 205.12 134.72 200.72 135.84 196.48C136.88 192.8 138.48 189.04 138.48 185.12C138.48 181.6 136.88 179.52 133.2 179.52C122.16 179.52 112.4 202.64 108.24 211.12C108 211.52 107.84 211.84 107.52 212.24C107.52 211.84 107.44 211.52 107.44 211.12C107.44 207.76 108.16 204.48 108.88 201.12C109.6 197.84 110.32 194.48 110.32 191.12C110.32 188.16 109.76 184.08 106 184.08C98.8 184.08 87.36 204.32 83.84 210.24C85.68 203.52 87.92 196.72 87.92 189.68C87.92 184.4 86 178.32 79.68 178.32C76.8 178.32 72 180.72 72 184C72 184.88 72.64 185.76 73.6 185.76C75.44 185.76 76.64 182.88 79.28 182.88C82.8 182.88 83.68 187.44 83.68 190.16C83.68 195.12 82.4 200.32 81.2 205.12C80.32 208.56 77.84 215.36 77.84 218.64C77.84 220 78.48 221.36 80 221.36C80.96 221.36 81.76 220.72 82.32 220C86.64 214.64 99.36 188.8 105.68 188.72C105.76 188.96 105.84 189.28 105.84 189.52C105.84 193.68 105.12 197.84 104.4 201.92C103.92 204.96 103.12 208 103.12 211.2C103.12 213.76 103.68 217.04 106.96 217.04C110.56 217.04 112.48 212.16 113.76 209.44C117.68 201.2 121.84 190.72 129.6 185.44C130.56 184.8 131.68 184.16 132.8 184.16C133.76 184.16 134 185.2 134 185.92C134 187.2 133.6 188.4 133.28 189.6C131.6 196.8 129.2 204 129.2 211.52C129.2 216.72 132.88 221.2 138.24 221.2C139.44 221.2 141.52 220.8 141.52 219.2ZM175.338 208C175.338 207.12 174.538 206.32 173.658 206.32C170.938 206.32 168.938 214.72 163.898 214.72C161.578 214.72 160.538 212.16 160.218 210.24C160.778 208.24 162.778 206.56 162.778 203.52C162.778 202.16 162.058 200.64 160.538 200.64C157.258 200.64 155.898 207.92 155.818 210.4C154.378 212.32 151.018 215.84 148.378 215.84C146.458 215.84 145.978 213.44 145.978 211.92C145.978 207.04 149.258 203.68 149.258 201.6C149.258 200.4 148.378 199.52 147.178 199.52C146.298 199.52 145.418 200 144.938 200.72C143.338 203.44 141.818 209.04 141.818 212.16C141.818 215.92 143.178 219.92 147.578 219.92C151.098 219.92 154.458 216.96 156.938 214.72C158.218 217.2 160.938 219.04 163.738 219.04C168.218 219.04 173.418 212.64 175.098 208.88C175.258 208.64 175.338 208.32 175.338 208ZM193.757 206.96C193.757 206.08 193.197 205.36 192.237 205.36C191.597 205.36 191.117 205.76 190.797 206.32C189.677 208.24 188.477 210 186.877 211.6C186.077 207.44 181.517 204 178.637 201.28C179.277 199.36 180.077 197.12 180.077 195.04C180.077 193.68 179.677 192.48 178.077 192.48C175.357 192.48 173.517 197.36 173.517 199.6C173.517 200.56 173.677 201.52 174.077 202.4C173.357 204.16 171.917 206.24 171.917 208.24C171.917 209.2 172.477 209.76 173.437 209.76C174.957 209.76 176.237 206.64 176.877 205.44C178.877 207.12 183.117 210.4 183.117 213.2C183.117 213.76 183.037 214.4 182.797 214.88C181.517 215.84 179.757 216.4 178.157 216.4C175.997 216.4 174.717 215.12 173.757 215.12C172.797 215.12 172.077 216 172.077 216.96C172.077 219.84 176.397 221.12 178.717 221.12C181.597 221.12 184.877 219.2 186.237 216.64C188.557 215.2 193.757 209.84 193.757 206.96ZM198.914 191.44C198.914 189.84 198.034 188.08 196.194 188.08C193.394 188.08 192.034 191.44 192.034 193.76C192.034 195.28 193.234 196.16 194.674 196.16C197.154 196.16 198.914 193.76 198.914 191.44ZM207.314 207.44C207.314 206.48 206.594 205.76 205.634 205.76C204.914 205.76 204.274 206.32 203.874 206.88C202.594 209.2 199.074 215.36 195.874 215.36C193.874 215.36 193.874 213.2 193.874 211.76C193.874 208.32 195.394 204.16 195.394 201.84C195.394 200.72 194.674 199.76 193.474 199.76C189.874 199.76 189.634 209.44 189.634 212C189.634 215.6 190.674 219.44 194.994 219.44C196.754 219.44 198.514 218.8 199.954 217.76C202.354 215.92 207.314 210.56 207.314 207.44ZM231.15 207.6C231.15 206.64 230.51 205.84 229.47 205.84C228.75 205.84 228.27 206.24 227.87 206.8L227.79 206.96C225.39 211.12 220.91 215.44 215.79 215.44C210.99 215.44 207.79 212.08 207.79 207.36C207.79 203.84 210.75 197.28 214.91 197.28C215.63 197.28 216.19 197.68 216.67 198.24C215.95 199.92 215.63 201.76 215.63 203.6C215.63 205.2 215.79 208.24 217.95 208.24C220.83 208.24 221.55 202.24 221.55 200.16C221.55 199.04 221.47 197.92 221.07 196.88C221.23 195.76 220.75 194.48 219.39 194.56C218.43 193.76 217.07 193.12 215.79 193.12C208.91 193.12 203.47 201.92 203.47 208.16C203.47 214.64 208.43 219.36 214.83 219.36C221.07 219.36 228.67 214.4 230.99 208.56C231.07 208.24 231.15 207.92 231.15 207.6ZM258.174 207.68C258.174 206.8 257.454 206.08 256.574 206.08C254.974 206.08 253.854 209.68 249.694 209.68C249.854 208.96 249.934 208.32 249.934 207.6C249.934 204.88 248.254 200.08 244.894 200.16C244.094 198.88 241.614 198.88 240.254 198.88C233.534 198.88 226.814 204.16 226.814 211.2C226.814 216.4 230.654 220.72 235.934 220.72C240.734 220.72 246.014 217.6 248.254 213.36C251.454 213.76 258.174 211.52 258.174 207.68ZM245.774 207.28C245.774 207.76 245.774 208.16 245.694 208.64C244.254 207.68 242.814 206.16 242.814 204.4C242.814 204 242.814 203.12 243.374 203.12C244.734 203.12 245.774 206.16 245.774 207.28ZM244.254 212.08C242.734 214.56 239.694 217.12 236.734 217.12C233.374 217.12 231.374 214.08 231.374 210.96C231.374 206.24 234.894 202.88 239.534 202.64C239.294 203.2 239.214 203.92 239.214 204.56C239.214 207.84 241.614 210.4 244.254 212.08ZM285.284 207.68C285.284 206.8 284.564 206.08 283.684 206.08C282.084 206.08 280.964 209.68 276.804 209.68C276.964 208.96 277.044 208.32 277.044 207.6C277.044 204.88 275.364 200.08 272.004 200.16C271.204 198.88 268.724 198.88 267.364 198.88C260.644 198.88 253.924 204.16 253.924 211.2C253.924 216.4 257.764 220.72 263.044 220.72C267.844 220.72 273.124 217.6 275.364 213.36C278.564 213.76 285.284 211.52 285.284 207.68ZM272.884 207.28C272.884 207.76 272.884 208.16 272.804 208.64C271.364 207.68 269.924 206.16 269.924 204.4C269.924 204 269.924 203.12 270.484 203.12C271.844 203.12 272.884 206.16 272.884 207.28ZM271.364 212.08C269.844 214.56 266.804 217.12 263.844 217.12C260.484 217.12 258.484 214.08 258.484 210.96C258.484 206.24 262.004 202.88 266.644 202.64C266.404 203.2 266.324 203.92 266.324 204.56C266.324 207.84 268.724 210.4 271.364 212.08Z" fill="#92E3A9"/>
<defs>
<filter id="filter0_f_242_272" x="-61" y="0" width="473" height="402" filterUnits="userSpaceOnUse" color-interpolation-filters="sRGB">
<feFlood flood-opacity="0" result="BackgroundImageFix"/>
<feBlend mode="normal" in="SourceGraphic" in2="BackgroundImageFix" result="shape"/>
<feGaussianBlur stdDeviation="60" result="effect1_foregroundBlur_242_272"/>
</filter>
</defs>
</svg>
